{
  "accessors": [
    {
      "bufferView": 2,
      "componentType": 5126,
      "count": 2290,
      "max": [
        43.31049346923828,
        41.656898498535156,
        30.090028762817383
      ],
      "min": [
        -43.587188720703125,
        -0.19194364547729492,
        -29.150495529174805
      ],
      "type": "VEC3"
    },
    {
      "bufferView": 2,
      "byteOffset": 27480,
      "componentType": 5126,
      "count": 2290,
      "max": [
        1.0,
        1.0,
        1.0
      ],
      "min": [
        -1.0,
        -1.0,
        -1.0
      ],
      "type": "VEC3"
    },
    {
      "bufferView": 3,
      "componentType": 5126,
      "count": 2290,
      "max": [
        1.0,
        1.0,
        1.0,
        1.0
      ],
      "min": [
        -1.0,
        -1.0,
        -1.0,
        1.0
      ],
      "type": "VEC4"
    },
    {
      "bufferView": 1,
      "componentType": 5126,
      "count": 2290,
      "max": [
        0.9960849285125732,
        0.9927384853363037
      ],
      "min": [
        0.00390625,
        0.21460385620594025
      ],
      "type": "VEC2"
    },
    {
      "bufferView": 0,
      "componentType": 5125,
      "count": 8802,
      "type": "SCALAR"
    },
    {
      "bufferView": 2,
      "byteOffset": 54960,
      "componentType": 5126,
      "count": 910,
      "max": [
        38.74613571166992,
        53.89540481567383,
        27.751176834106445
      ],
      "min": [
        -38.995704650878906,
        32.28733825683594,
        -28.58042335510254
      ],
      "type": "VEC3"
    },
    {
      "bufferView": 2,
      "byteOffset": 65880,
      "componentType": 5126,
      "count": 910,
      "max": [
        1.0,
        1.0,
        1.0
      ],
      "min": [
        -1.0,
        -1.0,
        -1.0
      ],
      "type": "VEC3"
    },
    {
      "bufferView": 3,
      "byteOffset": 36640,
      "componentType": 5126,
      "count": 910,
      "max": [
        1.0,
        1.0,
        0.999675989151001,
        1.0
      ],
      "min": [
        -0.9996546506881714,
        -0.9911404252052307,
        -0.9999156594276428,
        1.0
      ],
      "type": "VEC4"
    },
    {
      "bufferView": 1,
      "byteOffset": 18320,
      "componentType": 5126,
      "count": 910,
      "max": [
        0.9901424050331116,
        0.9949647188186646
      ],
      "min": [
        0.026898395270109177,
        0.00390625
      ],
      "type": "VEC2"
    },
    {
      "bufferView": 0,
      "byteOffset": 35208,
      "componentType": 5125,
      "count": 3156,
      "type": "SCALAR"
    },
    {
      "bufferView": 2,
      "byteOffset": 76800,
      "componentType": 5126,
      "count": 546,
      "max": [
        40.1491584777832,
        53.04331970214844,
        26.58535385131836
      ],
      "min": [
        -40.153560638427734,
        40.86777877807617,
        -27.567968368530273
      ],
      "type": "VEC3"
    },
    {
      "bufferView": 2,
      "byteOffset": 83352,
      "componentType": 5126,
      "count": 546,
      "max": [
        1.0,
        1.0,
        1.0
      ],
      "min": [
        -1.0,
        -1.0,
        -1.0
      ],
      "type": "VEC3"
    },
    {
      "bufferView": 3,
      "byteOffset": 51200,
      "componentType": 5126,
      "count": 546,
      "max": [
        1.0,
        0.9999346137046814,
        0.9997285008430481,
        1.0
      ],
      "min": [
        -1.0,
        -0.9984023571014404,
        -0.9988970756530762,
        1.0
      ],
      "type": "VEC4"
    },
    {
      "bufferView": 1,
      "byteOffset": 25600,
      "componentType": 5126,
      "count": 546,
      "max": [
        0.9936020374298096,
        0.9924951791763306
      ],
      "min": [
        0.00390625,
        0.00390625
      ],
      "type": "VEC2"
    },
    {
      "bufferView": 0,
      "byteOffset": 47832,
      "componentType": 5125,
      "count": 864,
      "type": "SCALAR"
    },
    {
      "bufferView": 2,
      "byteOffset": 89904,
      "componentType": 5126,
      "count": 760,
      "max": [
        40.105491638183594,
        40.89765930175781,
        26.517494201660156
      ],
      "min": [
        -40.11637496948242,
        0.8745079040527344,
        -27.6118106842041
      ],
      "type": "VEC3"
    },
    {
      "bufferView": 2,
      "byteOffset": 99024,
      "componentType": 5126,
      "count": 760,
      "max": [
        1.0,
        1.0,
        1.0
      ],
      "min": [
        -1.0,
        -1.0,
        -1.0
      ],
      "type": "VEC3"
    },
    {
      "bufferView": 3,
      "byteOffset": 59936,
      "componentType": 5126,
      "count": 760,
      "max": [
        1.0,
        1.0,
        1.0,
        1.0
      ],
      "min": [
        -1.0,
        -1.0,
        -1.0,
        1.0
      ],
      "type": "VEC4"
    },
    {
      "bufferView": 1,
      "byteOffset": 29968,
      "componentType": 5126,
      "count": 760,
      "max": [
        0.99609375,
        0.9745733141899109
      ],
      "min": [
        0.00390625,
        0.00390625
      ],
      "type": "VEC2"
    },
    {
      "bufferView": 0,
      "byteOffset": 51288,
      "componentType": 5125,
      "count": 1140,
      "type": "SCALAR"
    },
    {
      "bufferView": 2,
      "byteOffset": 108144,
      "componentType": 5126,
      "count": 748,
      "max": [
        3.6602933406829834,
        35.71800231933594,
        28.846721649169922
      ],
      "min": [
        -2.3869898319244385,
        26.26113510131836,
        27.35727882385254
      ],
      "type": "VEC3"
    },
    {
      "bufferView": 2,
      "byteOffset": 117120,
      "componentType": 5126,
      "count": 748,
      "max": [
        0.9965789318084717,
        0.999542236328125,
        1.0
      ],
      "min": [
        -0.9957144260406494,
        -0.9999303817749023,
        -1.0
      ],
      "type": "VEC3"
    },
    {
      "bufferView": 3,
      "byteOffset": 72096,
      "componentType": 5126,
      "count": 748,
      "max": [
        0.9999303221702576,
        0.9957143664360046,
        1.0,
        1.0
      ],
      "min": [
        -0.9945051074028015,
        -0.9905843138694763,
        -1.0,
        1.0
      ],
      "type": "VEC4"
    },
    {
      "bufferView": 1,
      "byteOffset": 36048,
      "componentType": 5126,
      "count": 748,
      "max": [
        0.9554080367088318,
        0.9955675005912781
      ],
      "min": [
        0.2167488932609558,
        0.20213937759399414
      ],
      "type": "VEC2"
    },
    {
      "bufferView": 0,
      "byteOffset": 55848,
      "componentType": 5125,
      "count": 2172,
      "type": "SCALAR"
    }
  ],
  "asset": {
    "extras": {
      "author": "senya.frozenov (https://sketchfab.com/senya.frozenov)",
      "license": "CC-BY-4.0 (http://creativecommons.org/licenses/by/4.0/)",
      "source": "https://sketchfab.com/3d-models/chest-lootbox-2858c76f2eea4c158236d955de070279",
      "title": "Chest lootbox"
    },
    "generator": "Sketchfab-15.55.0",
    "version": "2.0"
  },
  "bufferViews": [
    {
      "buffer": 0,
      "byteLength": 64536,
      "name": "floatBufferViews",
      "target": 34963
    },
    {
      "buffer": 0,
      "byteLength": 42032,
      "byteOffset": 64536,
      "byteStride": 8,
      "name": "floatBufferViews",
      "target": 34962
    },
    {
      "buffer": 0,
      "byteLength": 126096,
      "byteOffset": 106568,
      "byteStride": 12,
      "name": "floatBufferViews",
      "target": 34962
    },
    {
      "buffer": 0,
      "byteLength": 84064,
      "byteOffset": 232664,
      "byteStride": 16,
      "name": "floatBufferViews",
      "target": 34962
    }
  ],
  "buffers": [
    {
      "byteLength": 316728,
      "uri": "scene.bin"
    }
  ],
  "images": [
    {
      "uri": "textures/M_chest1_baseColor.png"
    },
    {
      "uri": "textures/M_chest1_metallicRoughness.png"
    },
    {
      "uri": "textures/M_chest1_normal.png"
    }
  ],
  "materials": [
    {
      "doubleSided": true,
      "name": "M_chest1",
      "normalTexture": {
        "index": 2
      },
      "pbrMetallicRoughness": {
        "baseColorTexture": {
          "index": 0
        },
        "metallicRoughnessTexture": {
          "index": 1
        }
      }
    }
  ],
  "meshes": [
    {
      "name": "niz_metal_M_chest1_0",
      "primitives": [
        {
          "attributes": {
            "NORMAL": 1,
            "POSITION": 0,
            "TANGENT": 2,
            "TEXCOORD_0": 3
          },
          "indices": 4,
          "material": 0,
          "mode": 4
        }
      ]
    },
    {
      "name": "werh_metal_M_chest1_0",
      "primitives": [
        {
          "attributes": {
            "NORMAL": 6,
            "POSITION": 5,
            "TANGENT": 7,
            "TEXCOORD_0": 8
          },
          "indices": 9,
          "material": 0,
          "mode": 4
        }
      ]
    },
    {
      "name": "werh_derevo_M_chest1_0",
      "primitives": [
        {
          "attributes": {
            "NORMAL": 11,
            "POSITION": 10,
            "TANGENT": 12,
            "TEXCOORD_0": 13
          },
          "indices": 14,
          "material": 0,
          "mode": 4
        }
      ]
    },
    {
      "name": "niz_derevo_M_chest1_0",
      "primitives": [
        {
          "attributes": {
            "NORMAL": 16,
            "POSITION": 15,
            "TANGENT": 17,
            "TEXCOORD_0": 18
          },
          "indices": 19,
          "material": 0,
          "mode": 4
        }
      ]
    },
    {
      "name": "zamok_M_chest1_0",
      "primitives": [
        {
          "attributes": {
            "NORMAL": 21,
            "POSITION": 20,
            "TANGENT": 22,
            "TEXCOORD_0": 23
          },
          "indices": 24,
          "material": 0,
          "mode": 4
        }
      ]
    }
  ],
  "nodes": [
    {
      "children": [
        1
      ],
      "matrix": [
        1.0,
        0.0,
        0.0,
        0.0,
        0.0,
        2.220446049250313e-16,
        -1.0,
        0.0,
        0.0,
        1.0,
        2.220446049250313e-16,
        0.0,
        0.0,
        0.0,
        0.0,
        1.0
      ],
      "name": "Sketchfab_model"
    },
    {
      "children": [
        2
      ],
      "matrix": [
        0.009999999776482582,
        0.0,
        0.0,
        0.0,
        0.0,
        0.0,
        0.009999999776482582,
        0.0,
        0.0,
        -0.009999999776482582,
        0.0,
        0.0,
        0.0,
        0.0,
        0.0,
        1.0
      ],
      "name": "bb49d8d1ec6644b49b359681cf02eb03.fbx"
    },
    {
      "children": [
        3,
        5,
        7,
        9,
        11
      ],
      "name": "RootNode"
    },
    {
      "children": [
        4
      ],
      "name": "niz_metal"
    },
    {
      "mesh": 0,
      "name": "niz_metal_M_chest1_0"
    },
    {
      "children": [
        6
      ],
      "name": "werh_metal"
    },
    {
      "mesh": 1,
      "name": "werh_metal_M_chest1_0"
    },
    {
      "children": [
        8
      ],
      "name": "werh_derevo"
    },
    {
      "mesh": 2,
      "name": "werh_derevo_M_chest1_0"
    },
    {
      "children": [
        10
      ],
      "name": "niz_derevo"
    },
    {
      "mesh": 3,
      "name": "niz_derevo_M_chest1_0"
    },
    {
      "children": [
        12
      ],
      "matrix": [
        1.0,
        0.0,
        0.0,
        0.0,
        0.0,
        0.9978057301103589,
        -0.06620970441660043,
        0.0,
        0.0,
        0.06620970441660043,
        0.9978057301103589,
        0.0,
        0.0,
        -1.6950417757034302,
        2.5593950748443604,
        1.0
      ],
      "name": "zamok"
    },
    {
      "mesh": 4,
      "name": "zamok_M_chest1_0"
    }
  ],
  "samplers": [
    {
      "magFilter": 9729,
      "minFilter": 9987,
      "wrapS": 10497,
      "wrapT": 10497
    }
  ],
  "scene": 0,
  "scenes": [
    {
      "name": "Sketchfab_Scene",
      "nodes": [
        0
      ]
    }
  ],
  "textures": [
    {
      "sampler": 0,
      "source": 0
    },
    {
      "sampler": 0,
      "source": 1
    },
    {
      "sampler": 0,
      "source": 2
    }
  ]
}
